<?xml version="1.0" ?><!DOCTYPE svg  PUBLIC '-//W3C//DTD SVG 1.1//EN'  'http://www.w3.org/Graphics/SVG/1.1/DTD/svg11.dtd'><svg style="enable-background:new 0 0 512 512;" version="1.1" viewBox="0 0 512 512" xml:space="preserve" xmlns="http://www.w3.org/2000/svg" xmlns:xlink="http://www.w3.org/1999/xlink"><g><g id="_x32_0-Search"/><g id="_x31_9-Web_Page"/><g id="_x31_8-Wifi"/><g id="_x31_7-Hotspot"/><g id="_x31_6-Satelite"/><g id="_x31_5-Receiver"><g><path d="M427.779,304.977h-18.776V137.884c0-14.64-9.07-27.193-21.882-32.359V56c0-7.18-5.82-13-13-13      s-13,5.82-13,13v49.525c-12.812,5.166-21.882,17.72-21.882,32.359v167.092H172.764V137.884c0-14.64-9.07-27.193-21.882-32.359      V56c0-7.18-5.82-13-13-13s-13,5.82-13,13v49.525C112.07,110.691,103,123.245,103,137.884v167.092H84.221      c-22.728,0-41.218,18.49-41.218,41.217v21.589c0,22.728,18.49,41.217,41.218,41.217h343.559      c22.728,0,41.218-18.49,41.218-41.217v-21.589C468.997,323.466,450.507,304.977,427.779,304.977z M365.239,137.884      c0-4.897,3.984-8.882,8.882-8.882s8.882,3.984,8.882,8.882v167.092h-17.764V137.884z M129,137.884      c0-4.897,3.984-8.882,8.882-8.882s8.882,3.984,8.882,8.882v167.092H129V137.884z M442.997,367.783      c0,8.391-6.826,15.217-15.218,15.217H84.221c-8.392,0-15.218-6.827-15.218-15.217v-21.589c0-8.391,6.826-15.217,15.218-15.217      c3.004,0,338.463,0,343.559,0c8.392,0,15.218,6.827,15.218,15.217V367.783z" style="fill:#2175AA;"/><path d="M125.471,343.988h-18.246c-7.18,0-13,5.82-13,13s5.82,13,13,13h18.246c7.18,0,13-5.82,13-13      S132.65,343.988,125.471,343.988z" style="fill:#2175AA;"/><path d="M178.01,343.988h-18.246c-7.18,0-13,5.82-13,13s5.82,13,13,13h18.246c7.18,0,13-5.82,13-13      S185.189,343.988,178.01,343.988z" style="fill:#2175AA;"/><path d="M230.549,343.988h-18.246c-7.18,0-13,5.82-13,13s5.82,13,13,13h18.246c7.18,0,13-5.82,13-13      S237.729,343.988,230.549,343.988z" style="fill:#2175AA;"/><path d="M404.37,343.988h-76.893c-7.18,0-13,5.82-13,13s5.82,13,13,13h76.893c7.18,0,13-5.82,13-13      S411.55,343.988,404.37,343.988z" style="fill:#2175AA;"/></g></g><g id="_x31_4-Receiver"/><g id="_x31_3-Receiver"/><g id="_x31_2-Ethernet"/><g id="_x31_1-Code"/><g id="_x31_0-Homegroup"/><g id="_x30_9-Sharing_Option"/><g id="_x30_8-Data"/><g id="_x30_7-Connectivity"/><g id="_x30_6-Computer"/><g id="_x30_5-Laptop"/><g id="_x30_4-Mobile"/><g id="_x30_3-Network"/><g id="_x30_2-Click"/><g id="_x30_1-Website"/></g></svg>