<?xml version="1.0" ?><!DOCTYPE svg  PUBLIC '-//W3C//DTD SVG 1.1//EN'  'http://www.w3.org/Graphics/SVG/1.1/DTD/svg11.dtd'><svg style="enable-background:new 0 0 512 512;" version="1.1" viewBox="0 0 512 512" xml:space="preserve" xmlns="http://www.w3.org/2000/svg" xmlns:xlink="http://www.w3.org/1999/xlink"><g><g id="_x32_0-Search"/><g id="_x31_9-Web_Page"/><g id="_x31_8-Wifi"/><g id="_x31_7-Hotspot"/><g id="_x31_6-Satelite"/><g id="_x31_5-Receiver"/><g id="_x31_4-Receiver"/><g id="_x31_3-Receiver"/><g id="_x31_2-Ethernet"/><g id="_x31_1-Code"/><g id="_x31_0-Homegroup"/><g id="_x30_9-Sharing_Option"><g><path d="M398.227,261.661c3.726-58.292-28.39-111.727-79.257-136.891      c0.008-0.401,0.031-0.798,0.031-1.201c0-34.738-28.262-63-63-63s-63,28.262-63,63c0,0.403,0.023,0.8,0.031,1.201      c-50.741,25.101-82.992,78.458-79.257,136.891c-30.768,17.244-41.208,56.241-23.774,86.438      c17.368,30.08,55.968,40.423,86.049,23.057c0.176-0.102,0.343-0.213,0.517-0.316c48.012,32.356,110.856,32.357,158.87,0      c0.175,0.103,0.341,0.215,0.517,0.316c30.1,17.377,68.694,7.003,86.049-23.057C439.424,317.92,429.013,278.915,398.227,261.661z       M256,86.569c20.402,0,37,16.598,37,37s-16.598,37-37,37s-37-16.598-37-37S235.598,86.569,256,86.569z M112.517,335.099      c-10.199-17.665-4.125-40.333,13.539-50.531c17.665-10.198,40.334-4.124,50.531,13.54c10.199,17.665,4.125,40.333-13.539,50.531      C145.383,358.838,122.715,352.763,112.517,335.099z M196.257,352.557c30.313-43.739-3.802-102.909-56.757-98.732      c-0.461-43.787,23.4-82.614,59.721-102.968c22.932,47.523,90.608,47.558,113.557,0c36.285,20.334,60.183,59.139,59.721,102.968      c-53.055-4.186-87.014,55.072-56.756,98.732C278.988,374.608,233.046,374.628,196.257,352.557z M399.483,335.099      c-10.198,17.666-32.865,23.739-50.531,13.54c-17.664-10.199-23.738-32.867-13.539-50.531      c10.196-17.661,32.862-23.741,50.531-13.54C403.608,294.767,409.683,317.435,399.483,335.099z" style="fill:#2175AA;"/></g></g><g id="_x30_8-Data"/><g id="_x30_7-Connectivity"/><g id="_x30_6-Computer"/><g id="_x30_5-Laptop"/><g id="_x30_4-Mobile"/><g id="_x30_3-Network"/><g id="_x30_2-Click"/><g id="_x30_1-Website"/></g></svg>