<?xml version="1.0" ?><!DOCTYPE svg  PUBLIC '-//W3C//DTD SVG 1.1//EN'  'http://www.w3.org/Graphics/SVG/1.1/DTD/svg11.dtd'><svg style="enable-background:new 0 0 512 512;" version="1.1" viewBox="0 0 512 512" xml:space="preserve" xmlns="http://www.w3.org/2000/svg" xmlns:xlink="http://www.w3.org/1999/xlink"><g><g id="_x32_0-Search"/><g id="_x31_9-Web_Page"/><g id="_x31_8-Wifi"/><g id="_x31_7-Hotspot"/><g id="_x31_6-Satelite"/><g id="_x31_5-Receiver"/><g id="_x31_4-Receiver"/><g id="_x31_3-Receiver"/><g id="_x31_2-Ethernet"><g><path d="M456,353.013h-34.661v-97.017c0-7.18-5.82-13-13-13H268.997v-48.678h62.734c7.18,0,13-5.82,13-13      V85.996c0-7.18-5.82-13-13-13H180.27c-7.18,0-13,5.82-13,13v95.322c0,7.18,5.82,13,13,13h62.727v48.678H103.661      c-7.18,0-13,5.82-13,13v97.017H56c-7.18,0-13,5.82-13,13v59.991c0,7.18,5.82,13,13,13h95.322c7.18,0,13-5.82,13-13v-59.991      c0-7.18-5.82-13-13-13h-34.661v-84.017h126.335v84.017h-34.658c-7.18,0-13,5.82-13,13v59.991c0,7.18,5.82,13,13,13h95.322      c7.18,0,13-5.82,13-13v-59.991c0-7.18-5.82-13-13-13h-34.665v-84.017h126.342v84.017h-34.661c-7.18,0-13,5.82-13,13v59.991      c0,7.18,5.82,13,13,13H456c7.18,0,13-5.82,13-13v-59.991C469,358.833,463.18,353.013,456,353.013z M193.27,98.996H318.73v69.322      H193.27V98.996z M138.322,413.004H69v-33.991h69.322V413.004z M290.661,413.004h-69.322v-33.991h69.322V413.004z M443,413.004      h-69.322v-33.991H443V413.004z" style="fill:#2175AA;"/></g></g><g id="_x31_1-Code"/><g id="_x31_0-Homegroup"/><g id="_x30_9-Sharing_Option"/><g id="_x30_8-Data"/><g id="_x30_7-Connectivity"/><g id="_x30_6-Computer"/><g id="_x30_5-Laptop"/><g id="_x30_4-Mobile"/><g id="_x30_3-Network"/><g id="_x30_2-Click"/><g id="_x30_1-Website"/></g></svg>